<?xml version="1.0" encoding="utf-8"?>
<!-- Generator: Adobe Illustrator 27.3.1, SVG Export Plug-In . SVG Version: 6.00 Build 0)  -->
<svg version="1.1" id="Layer_1" xmlns="http://www.w3.org/2000/svg" xmlns:xlink="http://www.w3.org/1999/xlink" x="0px" y="0px"
	 viewBox="0 0 1000 1000" style="enable-background:new 0 0 1000 1000;" xml:space="preserve">
<style type="text/css">
	.st0{fill:#EEEEEE;}
</style>
<rect x="524.6" y="206.4" transform="matrix(0.7071 -0.7071 0.7071 0.7071 -76.5989 554.0581)" class="st0" width="211.9" height="326.1"/>
<rect x="263.5" y="467.5" transform="matrix(0.7071 -0.7071 0.7071 0.7071 -337.6147 445.9418)" class="st0" width="211.9" height="326.1"/>
<path class="st0" d="M701.3,68.1l230.6,230.6l68.1-68.1V31c0-17.1-13.9-31-31-31H769.4L701.3,68.1z"/>
<path class="st0" d="M298.7,931.9L68.1,701.3L0,769.4V969c0,17.1,13.9,31,31,31h199.6L298.7,931.9z"/>
<path class="st0" d="M547.1,0H31C13.9,0,0,13.9,0,31v516.1L547.1,0z"/>
<path class="st0" d="M452.9,1000H969c17.1,0,31-13.9,31-31V452.9L452.9,1000z"/>
</svg>
