<?xml version="1.0" encoding="utf-8"?>
<!-- Generator: Adobe Illustrator 27.3.1, SVG Export Plug-In . SVG Version: 6.00 Build 0)  -->
<svg version="1.1" id="Layer_1" xmlns="http://www.w3.org/2000/svg" xmlns:xlink="http://www.w3.org/1999/xlink" x="0px" y="0px"
	 viewBox="0 0 1000 1000" style="enable-background:new 0 0 1000 1000;" xml:space="preserve">
<style type="text/css">
	.st0{fill:#EEEEEE;}
</style>
<path class="st0" d="M687.1,32.1l261,270.6l51.9-51.9V31c0-17.1-13.9-31-31-31H719.2L687.1,32.1z"/>
<polygon class="st0" points="575.9,143.2 426.2,293 687.2,563.6 837,413.8 "/>
<polygon class="st0" points="315.1,404.1 165.3,553.9 426.3,824.5 576.1,674.7 "/>
<path class="st0" d="M496.9,0H31.5c-17.1,0-31,13.9-31,31v465.5L496.9,0z"/>
<path class="st0" d="M473.6,999.5H969c17.1,0,31-13.9,31-31V473.1L473.6,999.5z"/>
<path class="st0" d="M315.2,935.6L54.2,665L0.5,718.7v249.9c0,17.1,13.9,31,31,31h219.9L315.2,935.6z"/>
</svg>
